<?xml version="1.0" encoding="UTF-8"?>
<svg id="Logo" xmlns="http://www.w3.org/2000/svg" xmlns:xlink="http://www.w3.org/1999/xlink" viewBox="0 0 425.2 141.73">
  <defs>
    <style>
      .cls-1 {
        fill: url(#Besser);
      }

      .cls-1, .cls-2, .cls-3, .cls-4, .cls-5, .cls-6, .cls-7, .cls-8, .cls-9, .cls-10, .cls-11, .cls-12, .cls-13, .cls-14, .cls-15, .cls-16, .cls-17, .cls-18, .cls-19, .cls-20, .cls-21, .cls-22, .cls-23, .cls-24, .cls-25, .cls-26, .cls-27, .cls-28, .cls-29, .cls-30, .cls-31, .cls-32 {
        stroke-width: 0px;
      }

      .cls-33 {
        stroke: #1d1d1b;
        stroke-width: 3.68px;
      }

      .cls-33, .cls-34 {
        fill: none;
        stroke-linejoin: round;
      }

      .cls-2 {
        fill: url(#Besser-9);
      }

      .cls-3 {
        fill: url(#Besser-5);
      }

      .cls-4 {
        fill: url(#Besser-2);
      }

      .cls-5 {
        fill: url(#Besser-4);
      }

      .cls-6 {
        fill: url(#Besser-3);
      }

      .cls-7 {
        fill: url(#Besser-8);
      }

      .cls-8 {
        fill: url(#Besser-7);
      }

      .cls-9 {
        fill: url(#Besser-6);
      }

      .cls-34 {
        stroke: #23b9d6;
        stroke-width: 1.83px;
      }

      .cls-10 {
        fill: url(#Besser-30);
      }

      .cls-11 {
        fill: url(#Besser-23);
      }

      .cls-12 {
        fill: url(#Besser-25);
      }

      .cls-13 {
        fill: url(#Besser-26);
      }

      .cls-14 {
        fill: url(#Besser-20);
      }

      .cls-15 {
        fill: url(#Besser-29);
      }

      .cls-16 {
        fill: url(#Besser-27);
      }

      .cls-17 {
        fill: url(#Besser-28);
      }

      .cls-18 {
        fill: url(#Besser-21);
      }

      .cls-19 {
        fill: url(#Besser-22);
      }

      .cls-20 {
        fill: url(#Besser-24);
      }

      .cls-21 {
        fill: url(#Besser-12);
      }

      .cls-22 {
        fill: url(#Besser-14);
      }

      .cls-23 {
        fill: url(#Besser-17);
      }

      .cls-24 {
        fill: url(#Besser-11);
      }

      .cls-25 {
        fill: url(#Besser-16);
      }

      .cls-26 {
        fill: url(#Besser-10);
      }

      .cls-27 {
        fill: url(#Besser-15);
      }

      .cls-28 {
        fill: url(#Besser-19);
      }

      .cls-29 {
        fill: url(#Besser-13);
      }

      .cls-30 {
        fill: url(#Besser-18);
      }

      .cls-31 {
        fill: #1d1d1b;
      }

      .cls-32 {
        fill: #23b9d6;
      }
    </style>
    <radialGradient id="Besser" cx="346.99" cy="55.11" fx="346.99" fy="55.11" r="15.39" gradientUnits="userSpaceOnUse">
      <stop offset="0" stop-color="#23b9d6"/>
      <stop offset=".53" stop-color="#0096bb"/>
      <stop offset="1" stop-color="#397a94"/>
    </radialGradient>
    <radialGradient id="Besser-2" data-name="Besser" cx="315.28" cy="64.39" fx="315.28" fy="64.39" r="29.09" xlink:href="#Besser"/>
    <radialGradient id="Besser-3" data-name="Besser" cx="321.78" cy="31.71" fx="321.78" fy="31.71" r="24.29" xlink:href="#Besser"/>
    <radialGradient id="Besser-4" data-name="Besser" cx="345.88" cy="75.81" fx="345.88" fy="75.81" r="26.62" xlink:href="#Besser"/>
    <radialGradient id="Besser-5" data-name="Besser" cx="329.82" cy="75.89" fx="329.82" fy="75.89" r="24.55" xlink:href="#Besser"/>
    <radialGradient id="Besser-6" data-name="Besser" cx="149.83" cy="74.39" fx="149.83" fy="74.39" r="18.83" xlink:href="#Besser"/>
    <radialGradient id="Besser-7" data-name="Besser" cx="241.4" cy="75.25" fx="241.4" fy="75.25" r="23.03" xlink:href="#Besser"/>
    <radialGradient id="Besser-8" data-name="Besser" cx="228.47" cy="54.23" fx="228.47" fy="54.23" r="28.38" xlink:href="#Besser"/>
    <radialGradient id="Besser-9" data-name="Besser" cx="253.32" cy="69.59" fx="253.32" fy="69.59" r="22.7" xlink:href="#Besser"/>
    <radialGradient id="Besser-10" data-name="Besser" cx="290.5" cy="75.25" fx="290.5" fy="75.25" r="23.03" xlink:href="#Besser"/>
    <radialGradient id="Besser-11" data-name="Besser" cx="277.57" cy="54.23" fx="277.57" fy="54.23" r="28.38" xlink:href="#Besser"/>
    <radialGradient id="Besser-12" data-name="Besser" cx="302.42" cy="69.59" fx="302.42" fy="69.59" r="22.7" xlink:href="#Besser"/>
    <radialGradient id="Besser-13" data-name="Besser" cx="199.7" fx="199.7" r="15.39" xlink:href="#Besser"/>
    <radialGradient id="Besser-14" data-name="Besser" cx="167.99" cy="64.39" fx="167.99" fy="64.39" r="29.09" xlink:href="#Besser"/>
    <radialGradient id="Besser-15" data-name="Besser" cx="174.49" cy="31.71" fx="174.49" fy="31.71" r="24.29" xlink:href="#Besser"/>
    <radialGradient id="Besser-16" data-name="Besser" cx="198.59" cy="75.81" fx="198.59" fy="75.81" r="26.62" xlink:href="#Besser"/>
    <radialGradient id="Besser-17" data-name="Besser" cx="182.53" cy="75.89" fx="182.53" fy="75.89" r="24.55" xlink:href="#Besser"/>
    <radialGradient id="Besser-18" data-name="Besser" cx="140.86" cy="53.81" fx="140.86" fy="53.81" r="28.92" gradientTransform="translate(266.47 138.59) rotate(-167.64) scale(1 1.04)" xlink:href="#Besser"/>
    <radialGradient id="Besser-19" data-name="Besser" cx="131.5" cy="30.1" fx="131.5" fy="30.1" r="28.84" xlink:href="#Besser"/>
    <radialGradient id="Besser-20" data-name="Besser" cx="363.16" cy="73.62" fx="363.16" fy="73.62" r="1.72" xlink:href="#Besser"/>
    <radialGradient id="Besser-21" data-name="Besser" cx="374.52" cy="59.34" fx="374.52" fy="59.34" r=".46" xlink:href="#Besser"/>
    <radialGradient id="Besser-22" data-name="Besser" cx="367.7" cy="32.36" fx="367.7" fy="32.36" r="24.54" xlink:href="#Besser"/>
    <radialGradient id="Besser-23" data-name="Besser" cx="395.1" cy="43.87" fx="395.1" fy="43.87" r=".58" xlink:href="#Besser"/>
    <radialGradient id="Besser-24" data-name="Besser" cx="395.07" cy="45.36" fx="395.07" fy="45.36" r=".15" xlink:href="#Besser"/>
    <radialGradient id="Besser-25" data-name="Besser" cx="389.75" cy="37.22" fx="389.75" fy="37.22" r="1.04" xlink:href="#Besser"/>
    <radialGradient id="Besser-26" data-name="Besser" cx="394.63" cy="41.66" fx="394.63" fy="41.66" r="1.03" xlink:href="#Besser"/>
    <radialGradient id="Besser-27" data-name="Besser" cx="368.21" cy="81.22" fx="368.21" fy="81.22" r="18.95" xlink:href="#Besser"/>
    <radialGradient id="Besser-28" data-name="Besser" cx="399.72" cy="44.5" fx="399.72" fy="44.5" r="29.48" xlink:href="#Besser"/>
    <radialGradient id="Besser-29" data-name="Besser" cx="395.1" cy="44.92" fx="395.1" fy="44.92" r=".16" xlink:href="#Besser"/>
    <radialGradient id="Besser-30" data-name="Besser" cx="365.45" cy="61.33" fx="365.45" fy="61.33" r="25.86" xlink:href="#Besser"/>
  </defs>
  <g>
    <path class="cls-31" d="M118.12,97.53v4.5c.55-.58,1.12-1.02,1.69-1.32s1.29-.46,2.14-.46c.98,0,1.83.23,2.57.7s1.31,1.14,1.71,2.02.61,1.92.61,3.13c0,.89-.11,1.71-.34,2.45s-.56,1.39-.99,1.94-.95.97-1.57,1.27-1.29.45-2.03.45c-.45,0-.88-.05-1.28-.16s-.74-.25-1.02-.43-.52-.36-.72-.54-.46-.47-.78-.84v.29c0,.55-.13.97-.4,1.26s-.6.43-1.01.43-.75-.14-1-.43-.37-.7-.37-1.26v-12.85c0-.6.12-1.05.36-1.35s.58-.46,1.01-.46c.45,0,.8.15,1.05.44s.37.71.37,1.25ZM118.26,106.27c0,1.17.27,2.07.8,2.7s1.24.94,2.11.94c.74,0,1.38-.32,1.91-.97s.8-1.57.8-2.77c0-.78-.11-1.44-.33-2.01s-.54-.99-.95-1.3-.89-.46-1.43-.46-1.06.15-1.5.46-.78.75-1.04,1.33-.38,1.27-.38,2.06Z"/>
    <path class="cls-31" d="M137.64,106.93h-5.76c0,.67.14,1.26.4,1.77s.61.89,1.05,1.15.91.39,1.44.39c.35,0,.67-.04.97-.12s.57-.21.85-.39.52-.36.75-.57.53-.47.89-.82c.15-.13.37-.19.65-.19.3,0,.55.08.73.25s.28.4.28.7c0,.27-.1.58-.31.93s-.52.7-.94,1.02-.95.6-1.59.81-1.37.32-2.19.32c-1.89,0-3.36-.54-4.41-1.62s-1.57-2.54-1.57-4.39c0-.87.13-1.68.39-2.42s.64-1.38,1.13-1.91,1.11-.94,1.83-1.22,1.53-.43,2.42-.43c1.15,0,2.14.24,2.96.73s1.44,1.11,1.85,1.88.61,1.55.61,2.35c0,.74-.21,1.22-.64,1.44s-1.02.33-1.79.33ZM131.88,105.26h5.34c-.07-1.01-.34-1.76-.81-2.26s-1.09-.75-1.86-.75-1.34.25-1.81.76-.76,1.26-.86,2.25Z"/>
    <path class="cls-31" d="M142.93,100.48h.32v-1.77c0-.47.01-.85.04-1.12s.1-.5.21-.7c.12-.2.28-.36.5-.49s.46-.19.72-.19c.37,0,.71.14,1.01.42.2.19.33.42.38.68s.08.65.08,1.15v2.01h1.08c.42,0,.74.1.95.3s.33.45.33.76c0,.4-.16.67-.47.83s-.76.24-1.34.24h-.55v5.41c0,.46.02.81.05,1.06s.12.45.26.6.37.23.68.23c.17,0,.41-.03.7-.09s.52-.09.69-.09c.24,0,.45.1.64.29s.29.43.29.71c0,.47-.26.84-.78,1.09s-1.26.38-2.23.38c-.92,0-1.62-.15-2.09-.46s-.79-.74-.93-1.28-.22-1.28-.22-2.19v-5.65h-.39c-.42,0-.75-.1-.97-.3s-.33-.46-.33-.77.12-.56.35-.76.57-.3,1.02-.3Z"/>
    <path class="cls-31" d="M150.97,100.48h.32v-1.77c0-.47.01-.85.04-1.12s.1-.5.21-.7c.12-.2.28-.36.5-.49s.46-.19.72-.19c.37,0,.71.14,1.01.42.2.19.33.42.38.68s.08.65.08,1.15v2.01h1.08c.42,0,.74.1.95.3s.33.45.33.76c0,.4-.16.67-.47.83s-.76.24-1.34.24h-.55v5.41c0,.46.02.81.05,1.06s.12.45.26.6.37.23.68.23c.17,0,.41-.03.7-.09s.52-.09.69-.09c.24,0,.45.1.64.29s.29.43.29.71c0,.47-.26.84-.78,1.09s-1.26.38-2.23.38c-.92,0-1.62-.15-2.09-.46s-.79-.74-.93-1.28-.22-1.28-.22-2.19v-5.65h-.39c-.42,0-.75-.1-.97-.3s-.33-.46-.33-.77.12-.56.35-.76.57-.3,1.02-.3Z"/>
    <path class="cls-31" d="M167.06,106.93h-5.76c0,.67.14,1.26.4,1.77s.61.89,1.05,1.15.91.39,1.44.39c.35,0,.67-.04.97-.12s.57-.21.85-.39.52-.36.75-.57.53-.47.89-.82c.15-.13.37-.19.65-.19.3,0,.55.08.73.25s.28.4.28.7c0,.27-.1.58-.31.93s-.52.7-.94,1.02-.95.6-1.59.81-1.37.32-2.19.32c-1.89,0-3.36-.54-4.41-1.62s-1.57-2.54-1.57-4.39c0-.87.13-1.68.39-2.42s.64-1.38,1.13-1.91,1.11-.94,1.83-1.22,1.53-.43,2.42-.43c1.15,0,2.14.24,2.96.73s1.44,1.11,1.85,1.88.61,1.55.61,2.35c0,.74-.21,1.22-.64,1.44s-1.02.33-1.79.33ZM161.3,105.26h5.34c-.07-1.01-.34-1.76-.81-2.26s-1.09-.75-1.86-.75-1.34.25-1.81.76-.76,1.26-.86,2.25Z"/>
    <path class="cls-31" d="M175.11,107.94v2.46c0,.6-.14,1.04-.42,1.34s-.64.45-1.07.45-.77-.15-1.05-.45-.41-.75-.41-1.34v-8.2c0-1.32.48-1.98,1.43-1.98.49,0,.84.15,1.06.46s.33.77.36,1.37c.35-.6.71-1.06,1.08-1.37s.86-.46,1.48-.46,1.22.15,1.8.46.87.72.87,1.23c0,.36-.12.66-.37.89s-.52.35-.8.35c-.11,0-.37-.07-.78-.2s-.78-.2-1.09-.2c-.43,0-.78.11-1.06.34s-.49.56-.64,1.01-.26.98-.31,1.59-.09,1.36-.09,2.25Z"/>
    <path class="cls-31" d="M197.3,108.34c0,.81-.2,1.51-.59,2.09s-.98,1.02-1.75,1.32-1.71.45-2.82.45-1.96-.16-2.72-.49-1.31-.73-1.67-1.21-.54-.97-.54-1.46c0-.32.12-.6.35-.83s.52-.35.87-.35c.31,0,.55.08.71.23s.32.36.47.64c.3.52.66.92,1.08,1.18s.99.39,1.72.39c.59,0,1.07-.13,1.45-.39s.57-.56.57-.9c0-.52-.2-.89-.59-1.13s-1.04-.46-1.94-.68c-1.01-.25-1.84-.52-2.47-.79s-1.14-.64-1.53-1.09-.57-1.01-.57-1.67c0-.59.18-1.15.53-1.67s.87-.94,1.56-1.26,1.52-.47,2.49-.47c.76,0,1.45.08,2.05.24s1.11.37,1.52.64.72.56.93.88.32.64.32.95c0,.34-.11.61-.34.83s-.55.32-.97.32c-.3,0-.56-.09-.77-.26s-.45-.43-.73-.78c-.22-.29-.49-.52-.79-.69s-.71-.26-1.23-.26-.97.11-1.33.34-.53.51-.53.85c0,.31.13.56.39.76s.61.36,1.05.49,1.04.29,1.81.47c.91.22,1.66.49,2.24.8s1.02.67,1.32,1.09.45.9.45,1.44Z"/>
    <path class="cls-31" d="M211.03,106.21c0,.88-.14,1.69-.41,2.43s-.67,1.38-1.19,1.91-1.14.94-1.85,1.22-1.53.43-2.43.43-1.69-.14-2.4-.43-1.33-.7-1.85-1.23-.92-1.17-1.19-1.9-.4-1.54-.4-2.42.14-1.71.41-2.45.66-1.37,1.18-1.9,1.13-.93,1.85-1.21,1.53-.43,2.4-.43,1.7.14,2.43.43,1.35.7,1.87,1.23.91,1.16,1.18,1.9.4,1.54.4,2.43ZM208.08,106.21c0-1.2-.26-2.14-.79-2.8s-1.24-1-2.13-1c-.58,0-1.08.15-1.52.45s-.78.74-1.01,1.32-.36,1.26-.36,2.04.12,1.44.35,2.02.57,1.02,1,1.32.95.46,1.54.46c.89,0,1.6-.34,2.13-1.01s.79-1.6.79-2.79Z"/>
    <path class="cls-31" d="M213.34,100.48h.7v-.88c0-.92.12-1.65.35-2.19s.63-.94,1.19-1.19,1.32-.37,2.29-.37c1.72,0,2.58.42,2.58,1.26,0,.27-.09.51-.27.7s-.39.29-.64.29c-.12,0-.31-.02-.59-.06s-.52-.06-.71-.06c-.53,0-.87.16-1.02.47s-.23.76-.23,1.34v.7h.72c1.12,0,1.68.34,1.68,1.01,0,.48-.15.79-.45.92s-.71.19-1.23.19h-.72v7.8c0,.58-.14,1.03-.42,1.33s-.63.46-1.07.46-.76-.15-1.04-.46-.42-.75-.42-1.33v-7.8h-.81c-.44,0-.78-.1-1.01-.3s-.36-.45-.36-.77c0-.7.49-1.06,1.48-1.06Z"/>
    <path class="cls-31" d="M221.31,100.48h.32v-1.77c0-.47.01-.85.04-1.12s.1-.5.21-.7c.12-.2.28-.36.5-.49s.46-.19.72-.19c.37,0,.71.14,1.01.42.2.19.33.42.38.68s.08.65.08,1.15v2.01h1.08c.42,0,.74.1.95.3s.33.45.33.76c0,.4-.16.67-.47.83s-.76.24-1.34.24h-.55v5.41c0,.46.02.81.05,1.06s.12.45.26.6.37.23.68.23c.17,0,.41-.03.7-.09s.52-.09.69-.09c.24,0,.45.1.64.29s.29.43.29.71c0,.47-.26.84-.78,1.09s-1.26.38-2.23.38c-.92,0-1.62-.15-2.09-.46s-.79-.74-.93-1.28-.22-1.28-.22-2.19v-5.65h-.39c-.42,0-.75-.1-.97-.3s-.33-.46-.33-.77.12-.56.35-.76.57-.3,1.02-.3Z"/>
    <path class="cls-31" d="M231.02,102.06l1.92,6.58,1.75-6.11c.19-.64.33-1.08.42-1.31s.26-.46.51-.67.59-.32,1.02-.32.78.11,1.03.32.42.44.52.69.24.68.42,1.29l1.75,6.11,1.94-6.58c.13-.47.23-.82.31-1.03s.21-.4.4-.56.46-.24.81-.24.66.12.92.37.39.53.39.86c0,.3-.11.76-.33,1.37l-2.4,7.05c-.21.6-.37,1.03-.49,1.29s-.3.5-.54.71-.59.31-1.02.31-.8-.11-1.05-.33-.44-.5-.57-.82-.26-.74-.4-1.26l-1.68-5.74-1.63,5.74c-.22.8-.45,1.4-.7,1.81s-.69.61-1.33.61c-.32,0-.6-.06-.82-.19s-.42-.31-.57-.54-.28-.51-.4-.83-.2-.57-.27-.76l-2.38-7.05c-.24-.66-.36-1.12-.36-1.37,0-.32.13-.6.38-.85s.56-.38.93-.38c.49,0,.82.14.99.42s.36.75.55,1.42Z"/>
    <path class="cls-31" d="M254.51,110.53c-.71.55-1.4.97-2.06,1.25s-1.41.42-2.24.42c-.75,0-1.42-.15-1.99-.45s-1.01-.7-1.32-1.21-.46-1.06-.46-1.66c0-.81.26-1.49.77-2.06s1.21-.95,2.1-1.14c.19-.04.65-.14,1.39-.29s1.37-.29,1.9-.42,1.1-.28,1.72-.46c-.04-.78-.19-1.35-.47-1.71s-.85-.54-1.72-.54c-.75,0-1.31.1-1.69.31s-.7.52-.97.94-.46.69-.57.82-.35.2-.72.2c-.33,0-.62-.11-.86-.32s-.36-.48-.36-.81c0-.52.18-1.02.55-1.51s.94-.89,1.71-1.21,1.74-.47,2.9-.47c1.29,0,2.31.15,3.05.46s1.26.79,1.57,1.45.46,1.54.46,2.63c0,.69,0,1.28,0,1.76s0,1.02-.02,1.61c0,.55.09,1.13.27,1.73s.27.99.27,1.16c0,.3-.14.58-.43.82s-.61.37-.97.37c-.3,0-.6-.14-.89-.43s-.61-.7-.94-1.23ZM254.32,106.27c-.43.16-1.06.33-1.88.5s-1.39.31-1.71.39-.62.24-.91.49-.43.58-.43,1.01.17.82.51,1.14.78.47,1.33.47c.58,0,1.12-.13,1.61-.38s.85-.58,1.08-.99c.27-.45.4-1.18.4-2.2v-.42Z"/>
    <path class="cls-31" d="M263.34,107.94v2.46c0,.6-.14,1.04-.42,1.34s-.64.45-1.07.45-.77-.15-1.05-.45-.41-.75-.41-1.34v-8.2c0-1.32.48-1.98,1.43-1.98.49,0,.84.15,1.06.46s.33.77.36,1.37c.35-.6.71-1.06,1.08-1.37s.86-.46,1.48-.46,1.22.15,1.8.46.87.72.87,1.23c0,.36-.12.66-.37.89s-.52.35-.8.35c-.11,0-.37-.07-.78-.2s-.78-.2-1.09-.2c-.43,0-.78.11-1.06.34s-.49.56-.64,1.01-.26.98-.31,1.59-.09,1.36-.09,2.25Z"/>
    <path class="cls-31" d="M277.97,106.93h-5.76c0,.67.14,1.26.4,1.77s.61.89,1.05,1.15.91.39,1.44.39c.35,0,.67-.04.97-.12s.57-.21.85-.39.52-.36.75-.57.53-.47.89-.82c.15-.13.37-.19.65-.19.3,0,.55.08.73.25s.28.4.28.7c0,.27-.1.58-.31.93s-.52.7-.94,1.02-.95.6-1.59.81-1.37.32-2.19.32c-1.89,0-3.36-.54-4.41-1.62s-1.57-2.54-1.57-4.39c0-.87.13-1.68.39-2.42s.64-1.38,1.13-1.91,1.11-.94,1.83-1.22,1.53-.43,2.42-.43c1.15,0,2.14.24,2.96.73s1.44,1.11,1.85,1.88.61,1.55.61,2.35c0,.74-.21,1.22-.64,1.44s-1.02.33-1.79.33ZM272.22,105.26h5.34c-.07-1.01-.34-1.76-.81-2.26s-1.09-.75-1.86-.75-1.34.25-1.81.76-.76,1.26-.86,2.25Z"/>
    <path class="cls-31" d="M288.61,100.48h.7v-.88c0-.92.12-1.65.35-2.19s.63-.94,1.19-1.19,1.32-.37,2.29-.37c1.72,0,2.58.42,2.58,1.26,0,.27-.09.51-.27.7s-.39.29-.64.29c-.12,0-.31-.02-.59-.06s-.52-.06-.71-.06c-.53,0-.87.16-1.02.47s-.23.76-.23,1.34v.7h.72c1.12,0,1.68.34,1.68,1.01,0,.48-.15.79-.45.92s-.71.19-1.23.19h-.72v7.8c0,.58-.14,1.03-.42,1.33s-.63.46-1.07.46-.76-.15-1.04-.46-.42-.75-.42-1.33v-7.8h-.81c-.44,0-.78-.1-1.01-.3s-.36-.45-.36-.77c0-.7.49-1.06,1.48-1.06Z"/>
    <path class="cls-31" d="M303.57,110.53c-.71.55-1.4.97-2.06,1.25s-1.41.42-2.24.42c-.75,0-1.42-.15-1.99-.45s-1.01-.7-1.32-1.21-.46-1.06-.46-1.66c0-.81.26-1.49.77-2.06s1.21-.95,2.1-1.14c.19-.04.65-.14,1.39-.29s1.37-.29,1.9-.42,1.1-.28,1.72-.46c-.04-.78-.19-1.35-.47-1.71s-.85-.54-1.72-.54c-.75,0-1.31.1-1.69.31s-.7.52-.97.94-.46.69-.57.82-.35.2-.72.2c-.33,0-.62-.11-.86-.32s-.36-.48-.36-.81c0-.52.18-1.02.55-1.51s.94-.89,1.71-1.21,1.74-.47,2.9-.47c1.29,0,2.31.15,3.05.46s1.26.79,1.57,1.45.46,1.54.46,2.63c0,.69,0,1.28,0,1.76s0,1.02-.02,1.61c0,.55.09,1.13.27,1.73s.27.99.27,1.16c0,.3-.14.58-.43.82s-.61.37-.97.37c-.3,0-.6-.14-.89-.43s-.61-.7-.94-1.23ZM303.37,106.27c-.43.16-1.06.33-1.88.5s-1.39.31-1.71.39-.62.24-.91.49-.43.58-.43,1.01.17.82.51,1.14.78.47,1.33.47c.58,0,1.12-.13,1.61-.38s.85-.58,1.08-.99c.27-.45.4-1.18.4-2.2v-.42Z"/>
    <path class="cls-31" d="M318.95,108.34c0,.81-.2,1.51-.59,2.09s-.98,1.02-1.75,1.32-1.71.45-2.82.45-1.96-.16-2.72-.49-1.31-.73-1.67-1.21-.54-.97-.54-1.46c0-.32.12-.6.35-.83s.52-.35.87-.35c.31,0,.55.08.71.23s.32.36.47.64c.3.52.66.92,1.08,1.18s.99.39,1.72.39c.59,0,1.07-.13,1.45-.39s.57-.56.57-.9c0-.52-.2-.89-.59-1.13s-1.04-.46-1.94-.68c-1.01-.25-1.84-.52-2.47-.79s-1.14-.64-1.53-1.09-.57-1.01-.57-1.67c0-.59.18-1.15.53-1.67s.87-.94,1.56-1.26,1.52-.47,2.49-.47c.76,0,1.45.08,2.05.24s1.11.37,1.52.64.72.56.93.88.32.64.32.95c0,.34-.11.61-.34.83s-.55.32-.97.32c-.3,0-.56-.09-.77-.26s-.45-.43-.73-.78c-.22-.29-.49-.52-.79-.69s-.71-.26-1.23-.26-.97.11-1.33.34-.53.51-.53.85c0,.31.13.56.39.76s.61.36,1.05.49,1.04.29,1.81.47c.91.22,1.66.49,2.24.8s1.02.67,1.32,1.09.45.9.45,1.44Z"/>
    <path class="cls-31" d="M321.82,100.48h.32v-1.77c0-.47.01-.85.04-1.12s.1-.5.21-.7c.12-.2.28-.36.5-.49s.46-.19.72-.19c.37,0,.71.14,1.01.42.2.19.33.42.38.68s.08.65.08,1.15v2.01h1.08c.42,0,.74.1.95.3s.33.45.33.76c0,.4-.16.67-.47.83s-.76.24-1.34.24h-.55v5.41c0,.46.02.81.05,1.06s.12.45.26.6.37.23.68.23c.17,0,.41-.03.7-.09s.52-.09.69-.09c.24,0,.45.1.64.29s.29.43.29.71c0,.47-.26.84-.78,1.09s-1.26.38-2.23.38c-.92,0-1.62-.15-2.09-.46s-.79-.74-.93-1.28-.22-1.28-.22-2.19v-5.65h-.39c-.42,0-.75-.1-.97-.3s-.33-.46-.33-.77.12-.56.35-.76.57-.3,1.02-.3Z"/>
    <path class="cls-31" d="M337.92,106.93h-5.76c0,.67.14,1.26.4,1.77s.61.89,1.05,1.15.91.39,1.44.39c.35,0,.67-.04.97-.12s.57-.21.85-.39.52-.36.75-.57.53-.47.89-.82c.15-.13.37-.19.65-.19.3,0,.55.08.73.25s.28.4.28.7c0,.27-.1.58-.31.93s-.52.7-.94,1.02-.95.6-1.59.81-1.37.32-2.19.32c-1.89,0-3.36-.54-4.41-1.62s-1.57-2.54-1.57-4.39c0-.87.13-1.68.39-2.42s.64-1.38,1.13-1.91,1.11-.94,1.83-1.22,1.53-.43,2.42-.43c1.15,0,2.14.24,2.96.73s1.44,1.11,1.85,1.88.61,1.55.61,2.35c0,.74-.21,1.22-.64,1.44s-1.02.33-1.79.33ZM332.16,105.26h5.34c-.07-1.01-.34-1.76-.81-2.26s-1.09-.75-1.86-.75-1.34.25-1.81.76-.76,1.26-.86,2.25Z"/>
    <path class="cls-31" d="M345.97,107.94v2.46c0,.6-.14,1.04-.42,1.34s-.64.45-1.07.45-.77-.15-1.05-.45-.41-.75-.41-1.34v-8.2c0-1.32.48-1.98,1.43-1.98.49,0,.84.15,1.06.46s.33.77.36,1.37c.35-.6.71-1.06,1.08-1.37s.86-.46,1.48-.46,1.22.15,1.8.46.87.72.87,1.23c0,.36-.12.66-.37.89s-.52.35-.8.35c-.11,0-.37-.07-.78-.2s-.78-.2-1.09-.2c-.43,0-.78.11-1.06.34s-.49.56-.64,1.01-.26.98-.31,1.59-.09,1.36-.09,2.25Z"/>
  </g>
  <g>
    <g>
      <polyline class="cls-34" points="79.04 67.58 93.77 67.58 93.77 111.92 46.82 111.92 46.82 101.19"/>
      <polygon class="cls-32" points="51.39 102.52 46.82 94.61 42.25 102.52 51.39 102.52"/>
    </g>
    <rect class="cls-33" x="18.13" y="27.15" width="62.6" height="20.87"/>
    <rect class="cls-33" x="18.13" y="48.02" width="62.6" height="41.73"/>
  </g>
  <g>
    <g>
      <path class="cls-1" d="M347.01,58.19c1.65,0,2.88-.38,3.67-1.13s1.19-1.73,1.19-2.93-.4-2.16-1.2-2.89c-.8-.73-2.02-1.1-3.65-1.1-6,.06-15.41,3.11-22.14,8.05h22.14Z"/>
      <path class="cls-4" d="M324.87,50.14v-12.94c0-1.4-.15-6.63,5.49-8.23h-9.63c-1.51,0-2.75.22-3.72.66s-1.68,1.15-2.14,2.12c-.46.97-.68,2.22-.68,3.76v39.61c0-5.62,5.22-12.92,10.68-16.93,6.73-4.94,16.14-8,22.14-8.05h-22.14Z"/>
      <path class="cls-6" d="M324.87,37.2h24.05c1.7,0,2.97-.38,3.79-1.13s1.24-1.76,1.24-3-.41-2.21-1.24-2.97-2.09-1.13-3.79-1.13h-18.55c-5.64,1.6-5.49,6.83-5.49,8.23Z"/>
      <g>
        <path class="cls-5" d="M324.87,73.18v-14.99c-5.46,4.01-10.68,11.3-10.68,16.93,0,2.3.51,3.97,1.53,5,1.02,1.03,2.69,1.55,5.01,1.55h12.36c-1.4,0-7.32-2.64-8.23-8.48Z"/>
        <path class="cls-3" d="M353.53,74.34c-.85-.78-2.12-1.17-3.79-1.17h-24.87c.91,5.84,6.83,8.48,8.23,8.48h16.64c1.68,0,2.94-.39,3.79-1.17.85-.78,1.28-1.79,1.28-3.04s-.43-2.33-1.28-3.11Z"/>
      </g>
    </g>
    <path class="cls-9" d="M147.27,53.77c-2.55,2.25-16.25,3.97-22.72,4.49h11.11c3.71,0,6.51.6,8.37,1.8s2.8,3.13,2.8,5.79c0,5.2-3.61,7.8-10.82,7.8h-11.47v-15.38c-6.6.54-10.68,6.41-10.68,16.23v.63c0,2.28.5,3.94,1.49,4.98.99,1.04,2.65,1.56,4.98,1.56h16.1c2.78,0,5.21-.14,7.3-.41s3.93-.75,5.54-1.42c2.56-1.13,4.6-2.87,6.11-5.23s2.26-5.01,2.26-7.96c0-6.37-3.46-10.66-10.39-12.87Z"/>
    <g>
      <path class="cls-8" d="M245.51,66.99c0,2.21-.99,4.04-2.97,5.52s-4.55,2.21-7.71,2.21c-2.3,0-4.16-.36-5.57-1.1-1.41-.73-2.51-1.66-3.29-2.79-.78-1.13-1.5-2.53-2.17-4.21-.55-1.41-1.22-2.48-1.99-3.2-.78-.72-1.73-1.08-2.86-1.08-1.39,0-2.53.46-3.43,1.38s-1.35,2.03-1.35,3.32c0,2.23.75,4.52,2.25,6.88,1.5,2.36,3.44,4.25,5.84,5.66,10.26.49,23.19,1.3,23.26-12.62Z"/>
      <path class="cls-7" d="M225.05,41.83c0-1.7.84-3.16,2.53-4.37s3.91-1.82,6.67-1.82c2.97,0,5.13.56,6.47,1.67,1.34,1.11,2.49,2.67,3.45,4.65.74,1.39,1.43,2.39,2.07,3,.63.61,1.56.92,2.79.92,1.34,0,2.46-.51,3.36-1.53s1.35-2.16,1.35-3.43c0-1.39-.36-2.82-1.08-4.28s-1.85-2.86-3.41-4.19c-1.56-1.33-3.52-2.4-5.87-3.2-2.36-.8-5.16-1.2-8.39-1.2-4.05,0-7.57.61-10.57,1.82-3,1.21-5.28,2.94-6.87,5.19s-2.37,4.83-2.37,7.73c0,3.04.75,5.59,2.25,7.64,1.5,2.05,3.52,3.67,6.07,4.85s5.72,2.22,9.51,3.11c2.83.65,5.09,1.26,6.78,1.83s3.07,1.41,4.13,2.5c1.07,1.09,1.6,2.51,1.6,4.26.07-14.36-25.73-11.55-20.45-25.16Z"/>
      <path class="cls-2" d="M254.62,59.1c-.95-1.83-2.26-3.35-3.95-4.55-1.69-1.2-3.74-2.22-6.14-3.06s-5.1-1.6-8.07-2.3c-2.37-.6-4.07-1.05-5.1-1.37-1.03-.31-2.05-.74-3.06-1.29s-1.8-1.21-2.37-1.98-.86-1.68-.86-2.73c-5.27,13.61,20.52,10.8,20.45,25.16-.06,13.91-13,13.1-23.26,12.62,3.38,1.96,7.67,2.95,12.87,2.95,4.34,0,8.09-.72,11.25-2.16,3.16-1.44,5.57-3.43,7.2-5.97,1.64-2.54,2.46-5.4,2.46-8.59,0-2.66-.47-4.91-1.42-6.74Z"/>
    </g>
    <g>
      <path class="cls-26" d="M294.6,66.99c0,2.21-.99,4.04-2.97,5.52s-4.55,2.21-7.71,2.21c-2.3,0-4.16-.36-5.57-1.1-1.41-.73-2.51-1.66-3.29-2.79-.78-1.13-1.5-2.53-2.17-4.21-.55-1.41-1.22-2.48-1.99-3.2-.78-.72-1.73-1.08-2.86-1.08-1.39,0-2.53.46-3.43,1.38s-1.35,2.03-1.35,3.32c0,2.23.75,4.52,2.25,6.88,1.5,2.36,3.44,4.25,5.84,5.66,10.26.49,23.19,1.3,23.26-12.62Z"/>
      <path class="cls-24" d="M274.15,41.83c0-1.7.84-3.16,2.53-4.37s3.91-1.82,6.67-1.82c2.97,0,5.13.56,6.47,1.67,1.34,1.11,2.49,2.67,3.45,4.65.74,1.39,1.43,2.39,2.07,3,.63.61,1.56.92,2.79.92,1.34,0,2.46-.51,3.36-1.53s1.35-2.16,1.35-3.43c0-1.39-.36-2.82-1.08-4.28s-1.85-2.86-3.41-4.19c-1.56-1.33-3.52-2.4-5.87-3.2-2.36-.8-5.16-1.2-8.39-1.2-4.05,0-7.57.61-10.57,1.82-3,1.21-5.28,2.94-6.87,5.19s-2.37,4.83-2.37,7.73c0,3.04.75,5.59,2.25,7.64,1.5,2.05,3.52,3.67,6.07,4.85s5.72,2.22,9.51,3.11c2.83.65,5.09,1.26,6.78,1.83s3.07,1.41,4.13,2.5c1.07,1.09,1.6,2.51,1.6,4.26.07-14.36-25.73-11.55-20.45-25.16Z"/>
      <path class="cls-21" d="M303.71,59.1c-.95-1.83-2.26-3.35-3.95-4.55-1.69-1.2-3.74-2.22-6.14-3.06s-5.1-1.6-8.07-2.3c-2.37-.6-4.07-1.05-5.1-1.37-1.03-.31-2.05-.74-3.06-1.29s-1.8-1.21-2.37-1.98-.86-1.68-.86-2.73c-5.27,13.61,20.52,10.8,20.45,25.16-.06,13.91-13,13.1-23.26,12.62,3.38,1.96,7.67,2.95,12.87,2.95,4.34,0,8.09-.72,11.25-2.16,3.16-1.44,5.57-3.43,7.2-5.97,1.64-2.54,2.46-5.4,2.46-8.59,0-2.66-.47-4.91-1.42-6.74Z"/>
    </g>
    <g>
      <path class="cls-29" d="M199.71,58.19c1.65,0,2.88-.38,3.67-1.13s1.19-1.73,1.19-2.93-.4-2.16-1.2-2.89c-.8-.73-2.02-1.1-3.65-1.1-6,.06-15.41,3.11-22.14,8.05h22.14Z"/>
      <path class="cls-22" d="M177.57,50.14v-12.94c0-1.4-.15-6.63,5.49-8.23h-9.63c-1.51,0-2.75.22-3.72.66s-1.68,1.15-2.14,2.12c-.46.97-.68,2.22-.68,3.76v39.61c0-5.62,5.22-12.92,10.68-16.93,6.73-4.94,16.14-8,22.14-8.05h-22.14Z"/>
      <path class="cls-27" d="M177.57,37.2h24.05c1.7,0,2.97-.38,3.79-1.13s1.24-1.76,1.24-3-.41-2.21-1.24-2.97-2.09-1.13-3.79-1.13h-18.55c-5.64,1.6-5.49,6.83-5.49,8.23Z"/>
      <g>
        <path class="cls-25" d="M177.57,73.18v-14.99c-5.46,4.01-10.68,11.3-10.68,16.93,0,2.3.51,3.97,1.53,5,1.02,1.03,2.69,1.55,5.01,1.55h12.36c-1.4,0-7.32-2.64-8.23-8.48Z"/>
        <path class="cls-23" d="M206.24,74.34c-.85-.78-2.12-1.17-3.79-1.17h-24.87c.91,5.84,6.83,8.48,8.23,8.48h16.64c1.68,0,2.94-.39,3.79-1.17.85-.78,1.28-1.79,1.28-3.04s-.43-2.33-1.28-3.11Z"/>
      </g>
    </g>
    <g>
      <path class="cls-30" d="M140.5,49.85c-1.45.5-3.5.75-6.16.75h-9.78v-13.62s-8.7-.72-9.74-5.65c.18-.29.38-.57.61-.8,1.03-1.03,2.7-1.55,5-1.55h17.36l-.36-.02h-17.07c-2.28,0-3.93.51-4.94,1.53-1.02,1.02-1.53,2.69-1.53,5.01v38.98c0-9.82,4.07-15.69,10.68-16.23,6.47-.52,20.16-2.25,22.72-4.49,5.27-2.44,7.91-6.3,7.91-11.57-.24,6.13-11.97,7.1-14.68,7.66Z"/>
      <path class="cls-28" d="M120.42,28.99c-2.3,0-3.97.52-5,1.55-.23.23-.43.51-.61.8,1.03,4.93,9.74,5.65,9.74,5.65h8.66c3.88,0,6.77.44,8.66,1.31,1.89.88,2.84,2.64,2.84,5.3,0,1.25-.3,2.37-.9,3.38-.77,1.41-1.88,2.37-3.32,2.88,2.71-.56,14.44-1.53,14.68-7.66,0-1.53-.25-2.99-.75-4.37s-1.23-2.64-2.19-3.77c-.96-1.14-2.06-2.08-3.31-2.82-1.46-.89-3.12-1.49-4.96-1.8-1.85-.31-4.03-.47-6.54-.47l.36.02h-17.36Z"/>
    </g>
    <g>
      <path class="cls-14" d="M363.22,76.05v-4.86c-.15,1.43-.17,3.02,0,4.86Z"/>
      <path class="cls-18" d="M373.89,59.55c.05-.02.11-.04.16-.06.36-.14.72-.25,1.08-.36h-1.24v.43Z"/>
      <path class="cls-19" d="M373.89,36.96h14.56c8.82,0,15.55,4.24,17.44,9.19.16-.84.25-1.74.25-2.7,0-1.92-.33-3.73-.99-5.45s-1.62-3.22-2.89-4.51-2.73-2.29-4.39-2.98c-1.37-.62-2.9-1.04-4.6-1.24s-3.75-.31-6.15-.31h-17.36c-2.3,0-3.97.52-5,1.55-.23.23-.43.51-.61.8,1.03,4.93,9.74,5.65,9.74,5.65Z"/>
      <path class="cls-11" d="M395.11,44.69c0-.2.03-.38.03-.59,0-.37-.02-.72-.07-1.05.03.29.06.58.06.91,0,.23,0,.49-.01.74Z"/>
      <path class="cls-20" d="M395.09,45.14c0,.14-.02.28-.04.43.02-.14.03-.28.04-.43Z"/>
      <path class="cls-12" d="M388.29,37.01c1.13.05,2.28.17,2.91.43-.64-.27-1.62-.38-2.91-.43Z"/>
      <path class="cls-13" d="M394.2,40.27c.41.91.73,1.79.86,2.78-.12-1.01-.43-1.83-.86-2.78Z"/>
      <path class="cls-16" d="M363.22,71.19v4.86c0,2.13.47,3.75,1.4,4.85s2.25,1.65,3.95,1.65c1.58,0,2.86-.53,3.85-1.58.98-1.05,1.47-2.7,1.47-4.92v-16.5c-5.66,2.19-9.94,4.71-10.68,11.64Z"/>
      <path class="cls-17" d="M388.29,37.01c1.29.05,2.28.16,2.91.43,1.32.55,2.25,1.19,2.99,2.83.43.95.74,1.77.86,2.78.04.34.07.68.07,1.05,0,.21-.02.39-.03.59,0,.15-.01.3-.02.45-.01.14-.02.29-.04.43-.2,2.4-1.07,5.33-4.73,7.95-5.32,3.8-10.53,4.07-15.18,5.6h2.49c1.89,0,3.46.25,4.71.75s2.47,1.44,3.68,2.8,2.58,3.36,4.12,5.97l4.28,7.12c1.01,1.68,1.8,2.95,2.39,3.81s1.29,1.58,2.1,2.14,1.82.84,3.02.84c1.01,0,1.89-.2,2.66-.59s1.37-.93,1.82-1.62.66-1.37.66-2.07-.38-1.9-1.13-3.68-1.81-3.79-3.16-6-2.89-4.31-4.62-6.27-3.54-3.45-5.43-4.46c4.51-.98,8.15-2.27,10.08-5,1.41-1.99,2.58-4.11,3.08-6.72-1.89-4.95-8.62-9.19-17.44-9.19"/>
      <path class="cls-15" d="M395.11,44.69c0,.15,0,.3-.02.45,0-.15.02-.3.02-.45Z"/>
    </g>
    <path class="cls-10" d="M393.93,48.54c-.92,1.07-2.26,1.82-4.01,2.26s-3.91.66-6.47.66h-9.56v-14.49h0c0-1.65.11-6.49,5.49-8.02h-9.63c-1.51,0-2.75.22-3.72.66-.82.38-1.41.98-1.87,1.73,0-.02-.01-.03-.02-.05-.04.07-.08.16-.12.24-.04.07-.1.12-.14.2-.06.12-.1.26-.15.39,0,0,0,0,0,.01-.11.28-.2.58-.27.9-.01.04-.02.08-.03.13-.06.29-.11.59-.14.91,0,.07-.02.14-.03.21-.04.38-.06.78-.06,1.21v35.69c.74-6.94,5.02-9.45,10.68-11.64v-.43h1.24c4.65-1.53,9.87-1.79,15.18-5.6,3.67-2.62,4.53-5.56,4.73-7.95-.13,1.2-.46,2.2-1.12,2.96Z"/>
  </g>
</svg>